<svg width="222" height="222" viewBox="0 0 222 222" fill="none" xmlns="http://www.w3.org/2000/svg">
<rect width="222" height="222" rx="111" fill="#A02816"/>
<path d="M42.9609 151H63.0312V123.82H73.2578L86.8203 151H109.352L93.5469 120.812C101.75 117.258 107 108.508 107 98.3906V98.2812C107 81.5469 96.2266 72.0859 77.1406 72.0859H42.9609V151ZM63.0312 109.273V87.2344H74.7891C81.8438 87.2344 86.5469 91.6094 86.5469 98.2266V98.3359C86.5469 105.008 82.0078 109.273 74.8984 109.273H63.0312ZM147.523 152.422C168.414 152.422 180.773 142.414 180.773 126.664V126.609C180.773 113.977 173.008 107.195 156.273 103.969L148.18 102.438C139.703 100.852 135.984 98.6094 135.984 94.3438V94.2891C135.984 89.75 140.141 86.4141 147.523 86.4141C154.742 86.4141 159.828 89.6406 160.43 94.8359L160.484 95.4375H179.133L179.078 94.2891C178.367 79.9609 167.156 70.6641 147.359 70.6641C129.258 70.6641 116.078 80.4531 116.078 95.6562V95.7109C116.078 107.797 124.336 115.508 139.977 118.406L148.07 119.938C157.312 121.742 160.812 123.82 160.812 128.305V128.359C160.812 133.281 155.891 136.672 147.906 136.672C140.195 136.672 134.289 133.336 133.305 128.25L133.195 127.648H114.547L114.602 128.633C115.477 143.727 127.891 152.422 147.523 152.422Z" fill="white"/>
</svg>
